HIERARCHY
ROOT Hips
{
    OFFSET 0.000000 0.000000 0.000000
    CHANNELS 6 Xposition Yposition Zposition Zrotation Xrotation Yrotation
        JOINT Chest
        {
            OFFSET -0.000000 26.978363 -0.000000
            CHANNELS 3 Zrotation Xrotation Yrotation
            JOINT Neck
            {
                OFFSET -0.000000 19.720629 0.000000
                CHANNELS 3 Zrotation Xrotation Yrotation
                JOINT Head
                {
                    OFFSET -0.000000 9.655557 0.000000
                    CHANNELS 3 Zrotation Xrotation Yrotation
                    End Site
                    {
                        OFFSET -0.000000 14.922232 0.000000
                    }
                }
            }
            JOINT LeftCollar
            {
                OFFSET -0.000000 19.720629 0.000000
                CHANNELS 3 Zrotation Xrotation Yrotation
                JOINT LeftShoulder
                {
                    OFFSET 17.555553 -0.000000 0.000000
                    CHANNELS 3 Zrotation Xrotation Yrotation
                    JOINT LeftElbow
                    {
                        OFFSET 22.589397 0.000000 0.000000
                        CHANNELS 3 Zrotation Xrotation Yrotation
                        JOINT LeftWrist
                        {
                            OFFSET 20.401022 0.000000 0.000000
                            CHANNELS 3 Zrotation Xrotation Yrotation
                            End Site
                            {
                                OFFSET 0.000000 -13.166666 0.000000
                            }
                        }
                    }
                }
            }
            JOINT RightCollar
            {
                OFFSET -0.000000 19.720629 0.000000
                CHANNELS 3 Zrotation Xrotation Yrotation
                JOINT RightShoulder
                {
                    OFFSET -17.555553 0.000000 0.000000
                    CHANNELS 3 Zrotation Xrotation Yrotation
                    JOINT RightElbow
                    {
                        OFFSET -22.589397 0.000000 0.000000
                        CHANNELS 3 Zrotation Xrotation Yrotation
                        JOINT RightWrist
                        {
                            OFFSET -20.401022 0.000000 0.000000
                            CHANNELS 3 Zrotation Xrotation Yrotation
                            End Site
                            {
                                OFFSET -0.000000 -13.166666 0.000000
                            }
                        }
                    }
                }
            }
        }
    JOINT LeftHip
    {
        OFFSET 10.533332 0.000000 0.000000
        CHANNELS 3 Zrotation Xrotation Yrotation
        JOINT LeftKnee
        {
            OFFSET -0.000000 -40.048210 0.000000
            CHANNELS 3 Zrotation Xrotation Yrotation
            JOINT LeftAnkle
            {
                OFFSET -0.000000 -36.098888 0.000000
                CHANNELS 3 Zrotation Xrotation Yrotation
                End Site
                {
                    OFFSET -0.000000 -4.388888 14.922232
                }
            }
        }
    }
    JOINT RightHip
    {
        OFFSET -10.533332 0.000000 0.000000
        CHANNELS 3 Zrotation Xrotation Yrotation
        JOINT RightKnee
        {
            OFFSET -0.000000 -40.048210 0.000000
            CHANNELS 3 Zrotation Xrotation Yrotation
            JOINT RightAnkle
            {
                OFFSET -0.000000 -36.098888 0.000000
                CHANNELS 3 Zrotation Xrotation Yrotation
                End Site
                {
                    OFFSET -0.000000 -4.388888 14.922232
                }
            }
        }
    }
}
MOTION
Frames:    9
Frame Time:    0.010000
34.619980    85.764557    -26.098034    -0.378000    -2.504328    -84.671410    0.244282    4.584327    -14.294208    5.597582    -0.497235    28.428036    -3.711187    19.839911    29.052559    -17.378113    3.222436    -20.125706    13.851626    21.821293    -85.061317    39.632175    -13.290679    -36.040268    127.007278    37.077911    97.204544    8.180740    0.184727    2.325914    43.096733    -11.464598    15.602571    -25.004776    -33.587856    106.222755    -136.959991    9.696680    -66.155380    -1.303825    -12.198204    10.397766    -2.151899    35.464787    17.561012    -6.839139    -7.164296    -14.137451    -3.646950    -9.191418    -0.436353    -3.130907    20.049725    -6.945965    11.883142    -10.690516    8.730070    
34.624119    85.655937    -26.205032    -0.431852    -2.684995    -84.322853    -0.004628    5.136381    -14.659894    5.680408    -0.456430    28.343979    -3.892875    19.828182    29.001146    -17.990898    3.310753    -19.952633    14.556631    22.694672    -85.450806    38.550789    -12.605028    -35.153660    126.942200    37.453743    97.060265    8.375777    0.172723    2.251437    45.657730    -12.526437    14.460048    -25.853148    -34.124138    105.237579    -137.108246    9.584075    -66.546089    -0.734228    -12.937181    10.261522    -2.901719    36.868027    18.533947    -7.883728    -6.279379    -15.729033    -3.822182    -8.802247    -1.267712    -3.036013    19.548382    -7.338461    9.981186    -10.144010    8.763432    
34.649162    85.525574    -26.325968    -0.445571    -2.815021    -83.967018    -0.232813    5.657297    -14.949297    5.823324    -0.415469    28.221550    -4.117065    19.800457    28.918066    -18.634657    3.404870    -19.751965    15.253941    23.589659    -85.805321    37.506538    -11.933257    -34.185909    126.859459    37.908890    96.970833    8.598862    0.147107    2.201829    48.099293    -13.572305    13.207836    -26.839478    -34.737953    103.994812    -137.142776    9.540760    -67.117546    -0.006815    -13.839574    10.318460    -3.622932    38.455597    19.305798    -9.191426    -5.152902    -17.319191    -4.003841    -8.541540    -2.333545    -2.961849    19.206993    -7.374485    8.469285    -9.797276    8.751105    
34.694290    85.377586    -26.459730    -0.410090    -2.879704    -83.620232    -0.426403    6.133795    -15.155165    6.015508    -0.377214    28.065516    -4.380935    19.758514    28.807281    -19.313608    3.492326    -19.519037    15.926991    24.516024    -86.103920    36.549095    -11.250281    -33.148460    126.681107    38.432701    96.990990    8.857491    0.185005    2.182993    50.380756    -14.593296    11.890004    -28.027905    -35.402348    102.420212    -137.050873    9.722162    -67.942055    0.883168    -14.892455    10.617216    -4.245557    40.186249    19.785591    -10.753745    -3.755836    -18.852608    -4.159907    -8.433874    -3.589895    -2.926389    19.038219    -7.010243    7.339345    -9.647867    8.650290    
34.757286    85.217026    -26.604254    -0.321471    -2.870317    -83.296616    -0.573116    6.558051    -15.277136    6.236264    -0.344899    27.882145    -4.672563    19.699551    28.672945    -20.019253    3.580473    -19.256947    16.509735    25.471476    -86.283386    35.605579    -10.599279    -32.137341    126.531708    39.077148    97.026169    9.161086    0.168612    2.194426    52.440266    -15.420372    10.445579    -29.531345    -36.236557    100.438942    -136.866272    10.127353    -69.027786    1.929731    -16.070761    11.185454    -4.696510    42.007896    19.898211    -12.533328    -2.089855    -20.277082    -4.263451    -8.490876    -4.978133    -2.947627    19.041763    -6.259966    6.558953    -9.671686    8.448965    
34.834534    85.049698    -26.756260    -0.182635    -2.786829    -83.006340    -0.665669    6.930101    -15.321143    6.463760    -0.319125    27.679377    -4.979209    19.617701    28.520311    -20.740818    3.658731    -18.980902    16.907742    26.465298    -86.259941    34.675060    -9.987816    -31.218321    126.377274    39.759884    97.042107    9.504738    0.209892    2.232674    54.287003    -16.100996    8.957666    -31.344454    -37.048851    98.024040    -136.626755    10.985621    -70.408310    3.113414    -17.337095    12.022929    -4.908871    43.858459    19.588125    -14.459119    -0.202349    -21.551300    -4.297384    -8.706952    -6.424813    -3.037291    19.202045    -5.196333    6.077956    -9.831265    8.164484    
34.921242    84.881889    -26.911100    -0.003439    -2.639179    -82.754112    -0.703250    7.258307    -15.299145    6.678378    -0.298148    27.465561    -5.289553    19.506435    28.355291    -21.452957    3.734121    -18.718323    16.963379    27.497543    -85.899231    33.671230    -9.436303    -30.516680    126.336990    40.446812    96.916077    9.886959    0.185394    2.291363    55.892937    -16.517147    7.374907    -33.444309    -37.839256    95.237366    -136.488678    12.299588    -71.995674    4.399680    -18.643866    13.096796    -4.833772    45.668449    18.824205    -16.423441    1.799272    -22.650740    -4.257585    -9.058450    -7.844480    -3.195100    19.489809    -3.938484    5.837781    -10.083896    7.832582    
35.011787    84.719894    -27.063206    0.200250    -2.445737    -82.538559    -0.690818    7.558033    -15.227785    6.865659    -0.276929    27.248390    -5.596537    19.359787    28.184034    -22.136089    3.796659    -18.500120    16.546381    28.571262    -85.085052    32.607239    -8.911294    -30.077881    126.363739    41.040916    96.647346    10.291594    0.201836    2.362382    57.299976    -16.779999    5.790371    -35.650711    -38.355556    92.206314    -136.486191    14.171841    -73.700989    5.741179    -19.937590    14.344375    -4.450981    47.366287    17.600607    -18.293804    3.744230    -23.562717    -4.152054    -9.506292    -9.147539    -3.406764    19.866991    -2.632564    5.781324    -10.387691    7.495702    
35.100277    84.569595    -27.207003    0.408903    -2.229764    -82.352478    -0.637881    7.848980    -15.125950    7.020134    -0.249845    27.033638    -5.898581    19.176378    28.012594    -22.768129    3.859326    -18.353012    15.555078    29.660635    -83.710541    31.413019    -8.433485    -29.960510    126.597847    41.546238    96.137520    10.703970    0.247117    2.436504    58.525505    -16.911083    4.237002    -37.740940    -38.523983    89.161407    -136.724731    16.532915    -75.355293    7.082825    -21.165138    15.680297    -3.776205    48.884842    15.938931    -19.945448    5.420707    -24.270153    -3.996815    -10.001990    -10.251875    -3.647579    20.293417    -1.426255    5.857184    -10.706292    7.191544    
